<mxfile host="app.diagrams.net" modified="2022-04-23T18:26:52.771Z" agent="5.0 (Windows NT 10.0; Win64; x64) AppleWebKit/537.36 (KHTML, like Gecko) Chrome/100.0.4896.127 Safari/537.36" etag="EDOz9ZfUDREz4kBsD607" version="17.4.6" type="github">
  <diagram id="w0ap5E05-Y_VS5PqhlRF" name="Page-1">
    <mxGraphModel dx="811" dy="869" grid="1" gridSize="10" guides="1" tooltips="1" connect="1" arrows="1" fold="1" page="1" pageScale="1" pageWidth="850" pageHeight="1100" math="0" shadow="0">
      <root>
        <mxCell id="0" />
        <mxCell id="1" parent="0" />
        <mxCell id="Q88BgifHRe6EjL5kIJQw-1" value="&lt;font style=&quot;font-size: 40px&quot;&gt;incl. RITUALUL&lt;br&gt;CAFELEI&lt;br&gt;&lt;/font&gt;" style="text;html=1;align=center;verticalAlign=middle;resizable=0;points=[];autosize=1;strokeColor=none;fillColor=none;" vertex="1" parent="1">
          <mxGeometry x="190" y="120" width="290" height="50" as="geometry" />
        </mxCell>
        <mxCell id="Q88BgifHRe6EjL5kIJQw-2" value="&lt;font style=&quot;font-size: 60px&quot;&gt;PARA - DIGMA&lt;/font&gt;" style="text;html=1;align=center;verticalAlign=middle;resizable=0;points=[];autosize=1;strokeColor=none;fillColor=none;fontSize=40;" vertex="1" parent="1">
          <mxGeometry x="135" y="265" width="420" height="60" as="geometry" />
        </mxCell>
        <mxCell id="Q88BgifHRe6EjL5kIJQw-3" value="&lt;font style=&quot;font-size: 40px&quot;&gt;Before,&lt;br&gt;&lt;br&gt;&lt;/font&gt;" style="text;html=1;align=center;verticalAlign=middle;resizable=0;points=[];autosize=1;strokeColor=none;fillColor=none;fontSize=60;" vertex="1" parent="1">
          <mxGeometry x="150" y="310" width="140" height="160" as="geometry" />
        </mxCell>
        <mxCell id="Q88BgifHRe6EjL5kIJQw-4" value="Above&amp;amp;Beyond" style="text;html=1;align=center;verticalAlign=middle;resizable=0;points=[];autosize=1;strokeColor=none;fillColor=none;fontSize=40;" vertex="1" parent="1">
          <mxGeometry x="60" y="390" width="290" height="50" as="geometry" />
        </mxCell>
        <mxCell id="Q88BgifHRe6EjL5kIJQw-5" value="SAYing" style="text;html=1;align=center;verticalAlign=middle;resizable=0;points=[];autosize=1;strokeColor=none;fillColor=none;fontSize=40;" vertex="1" parent="1">
          <mxGeometry x="400" y="340" width="140" height="50" as="geometry" />
        </mxCell>
        <mxCell id="Q88BgifHRe6EjL5kIJQw-6" value="as" style="text;html=1;align=center;verticalAlign=middle;resizable=0;points=[];autosize=1;strokeColor=none;fillColor=none;fontSize=40;" vertex="1" parent="1">
          <mxGeometry x="450" y="410" width="60" height="50" as="geometry" />
        </mxCell>
        <mxCell id="Q88BgifHRe6EjL5kIJQw-7" value="&amp;lt;using&amp;gt;" style="text;html=1;align=center;verticalAlign=middle;resizable=0;points=[];autosize=1;strokeColor=none;fillColor=none;fontSize=40;" vertex="1" parent="1">
          <mxGeometry x="397" y="485" width="160" height="50" as="geometry" />
        </mxCell>
        <mxCell id="Q88BgifHRe6EjL5kIJQw-8" value="[LANGUAGE]" style="text;html=1;align=center;verticalAlign=middle;resizable=0;points=[];autosize=1;strokeColor=none;fillColor=none;fontSize=40;" vertex="1" parent="1">
          <mxGeometry x="360" y="580" width="260" height="50" as="geometry" />
        </mxCell>
        <mxCell id="Q88BgifHRe6EjL5kIJQw-9" value="" style="endArrow=none;dashed=1;html=1;rounded=0;fontSize=40;exitX=0.269;exitY=-0.1;exitDx=0;exitDy=0;exitPerimeter=0;" edge="1" parent="1" source="Q88BgifHRe6EjL5kIJQw-7">
          <mxGeometry width="50" height="50" relative="1" as="geometry">
            <mxPoint x="440" y="460" as="sourcePoint" />
            <mxPoint x="440" y="390" as="targetPoint" />
          </mxGeometry>
        </mxCell>
        <mxCell id="Q88BgifHRe6EjL5kIJQw-10" value="" style="endArrow=none;dashed=1;html=1;rounded=0;fontSize=40;" edge="1" parent="1">
          <mxGeometry width="50" height="50" relative="1" as="geometry">
            <mxPoint x="440" y="586" as="sourcePoint" />
            <mxPoint x="440" y="526" as="targetPoint" />
          </mxGeometry>
        </mxCell>
        <mxCell id="Q88BgifHRe6EjL5kIJQw-11" value="" style="endArrow=none;html=1;rounded=0;fontSize=40;strokeColor=#FF0000;" edge="1" parent="1">
          <mxGeometry width="50" height="50" relative="1" as="geometry">
            <mxPoint x="430" y="585" as="sourcePoint" />
            <mxPoint x="430" y="535" as="targetPoint" />
          </mxGeometry>
        </mxCell>
        <mxCell id="Q88BgifHRe6EjL5kIJQw-12" value="" style="endArrow=none;html=1;rounded=0;fontSize=40;strokeColor=#FF0000;" edge="1" parent="1">
          <mxGeometry width="50" height="50" relative="1" as="geometry">
            <mxPoint x="347" y="323" as="sourcePoint" />
            <mxPoint x="567" y="323" as="targetPoint" />
          </mxGeometry>
        </mxCell>
        <mxCell id="Q88BgifHRe6EjL5kIJQw-13" value="" style="shape=curlyBracket;whiteSpace=wrap;html=1;rounded=1;fontSize=40;rotation=90;" vertex="1" parent="1">
          <mxGeometry x="205" y="265" width="20" height="130" as="geometry" />
        </mxCell>
        <mxCell id="Q88BgifHRe6EjL5kIJQw-14" value="" style="shape=waypoint;sketch=0;fillStyle=solid;size=6;pointerEvents=1;points=[];fillColor=none;resizable=0;rotatable=0;perimeter=centerPerimeter;snapToPoint=1;fontSize=40;strokeColor=#069968;" vertex="1" parent="1">
          <mxGeometry x="220" y="320" width="40" height="40" as="geometry" />
        </mxCell>
        <mxCell id="Q88BgifHRe6EjL5kIJQw-15" value="" style="shape=waypoint;sketch=0;fillStyle=solid;size=6;pointerEvents=1;points=[];fillColor=none;resizable=0;rotatable=0;perimeter=centerPerimeter;snapToPoint=1;fontSize=40;strokeColor=#069968;" vertex="1" parent="1">
          <mxGeometry x="100" y="370" width="40" height="40" as="geometry" />
        </mxCell>
        <mxCell id="Q88BgifHRe6EjL5kIJQw-16" value="" style="shape=waypoint;sketch=0;fillStyle=solid;size=6;pointerEvents=1;points=[];fillColor=none;resizable=0;rotatable=0;perimeter=centerPerimeter;snapToPoint=1;fontSize=40;strokeColor=#069968;" vertex="1" parent="1">
          <mxGeometry x="340" y="395" width="40" height="40" as="geometry" />
        </mxCell>
        <mxCell id="Q88BgifHRe6EjL5kIJQw-17" value="" style="endArrow=none;html=1;fontSize=40;strokeColor=#069968;curved=1;" edge="1" parent="1">
          <mxGeometry width="50" height="50" relative="1" as="geometry">
            <mxPoint x="115" y="399" as="sourcePoint" />
            <mxPoint x="135" y="399" as="targetPoint" />
            <Array as="points">
              <mxPoint x="125" y="389" />
            </Array>
          </mxGeometry>
        </mxCell>
        <mxCell id="Q88BgifHRe6EjL5kIJQw-18" value="" style="endArrow=none;html=1;fontSize=40;strokeColor=#069968;curved=1;" edge="1" parent="1">
          <mxGeometry width="50" height="50" relative="1" as="geometry">
            <mxPoint x="249" y="333" as="sourcePoint" />
            <mxPoint x="249" y="353" as="targetPoint" />
            <Array as="points">
              <mxPoint x="239" y="343" />
            </Array>
          </mxGeometry>
        </mxCell>
        <mxCell id="Q88BgifHRe6EjL5kIJQw-19" value="" style="endArrow=none;html=1;fontSize=40;strokeColor=#069968;curved=1;" edge="1" parent="1">
          <mxGeometry width="50" height="50" relative="1" as="geometry">
            <mxPoint x="350" y="395" as="sourcePoint" />
            <mxPoint x="350" y="435" as="targetPoint" />
            <Array as="points">
              <mxPoint x="360" y="415" />
            </Array>
          </mxGeometry>
        </mxCell>
        <mxCell id="Q88BgifHRe6EjL5kIJQw-20" value="" style="endArrow=none;html=1;fontSize=40;strokeColor=#000000;curved=1;entryX=0.355;entryY=-0.005;entryDx=0;entryDy=0;entryPerimeter=0;" edge="1" parent="1" target="Q88BgifHRe6EjL5kIJQw-2">
          <mxGeometry width="50" height="50" relative="1" as="geometry">
            <mxPoint x="140" y="265" as="sourcePoint" />
            <mxPoint x="190" y="215" as="targetPoint" />
          </mxGeometry>
        </mxCell>
        <mxCell id="Q88BgifHRe6EjL5kIJQw-21" value="" style="endArrow=none;html=1;fontSize=40;strokeColor=#000000;curved=1;entryX=0.949;entryY=0.021;entryDx=0;entryDy=0;entryPerimeter=0;" edge="1" parent="1" target="Q88BgifHRe6EjL5kIJQw-2">
          <mxGeometry width="50" height="50" relative="1" as="geometry">
            <mxPoint x="360" y="265.3" as="sourcePoint" />
            <mxPoint x="504.1" y="265.00000000000006" as="targetPoint" />
          </mxGeometry>
        </mxCell>
        <mxCell id="Q88BgifHRe6EjL5kIJQw-22" value="" style="endArrow=classic;html=1;fontSize=40;strokeColor=#000000;curved=1;entryX=0.802;entryY=-0.051;entryDx=0;entryDy=0;entryPerimeter=0;" edge="1" parent="1" target="Q88BgifHRe6EjL5kIJQw-2">
          <mxGeometry width="50" height="50" relative="1" as="geometry">
            <mxPoint x="470" y="120" as="sourcePoint" />
            <mxPoint x="520" y="70" as="targetPoint" />
            <Array as="points">
              <mxPoint x="540" y="190" />
            </Array>
          </mxGeometry>
        </mxCell>
      </root>
    </mxGraphModel>
  </diagram>
</mxfile>
